# AST/ASF file generated using VICON BodyLanguage
# -----------------------------------------------
:version 1.10
:name VICON
:units
  mass 1.0
  length 0.45
  angle deg
:documentation
   .ast/.asf automatically generated from VICON data using
   VICON BodyBuilder and BodyLanguage model FoxedUp or BRILLIANT.MOD
:root
   order TX TY TZ RX RY RZ
   axis XYZ
   position 0 0 0  
   orientation 0 0 0 
:bonedata
  begin
     id 1 
     name lhipjoint
     direction 0.643824 -0.71708 0.266994 
     length 2.52133 
     axis 0 0 0  XYZ
  end
  begin
     id 2 
     name lfemur
     direction 0.34202 -0.939693 0  
     length 7.51824  
     axis 0 0 20  XYZ
    dof rx ry rz
    limits (-160.0 20.0)
           (-70.0 70.0)
           (-60.0 70.0)
  end
  begin
     id 3 
     name ltibia
     direction 0.34202 -0.939693 0   
     length 7.3685   
     axis 0 0 20   XYZ
    dof rx
    limits (-10.0 170.0)
  end
  begin
     id 4 
     name lfoot
     direction 0.105419 -0.289636 0.951314   
     length 2.20972   
     axis -90 7.62852e-016 20   XYZ
    dof rx rz
    limits (-45.0 90.0)
           (-70.0 20.0)
  end
  begin
     id 5 
     name ltoes
     direction 1.53549e-011 -4.21833e-011 1   
     length 1.10139   
     axis -90 7.62852e-016 20   XYZ
    dof rx
    limits (-90.0 20.0)
  end
  begin
     id 6 
     name rhipjoint
     direction -0.608823 -0.743445 0.276811   
     length 2.43192  
     axis 0 0 0  XYZ 
  end
  begin
     id 7 
     name rfemur
     direction -0.34202 -0.939693 0   
     length 7.69715   
     axis 0 0 -20   XYZ
    dof rx ry rz
    limits (-160.0 20.0)
           (-70.0 70.0)
           (-70.0 60.0)
  end
  begin
     id 8 
     name rtibia
     direction -0.34202 -0.939693 0   
     length 7.44924   
     axis 0 0 -20   XYZ
    dof rx
    limits (-10.0 170.0)
 end
 begin
     id 9 
     name rfoot
     direction -0.103614 -0.284677 0.953007   
     length 2.22623  
     axis -90 -7.62852e-016 -20   XYZ
    dof rx rz
    limits (-45.0 90.0)
           (-20.0 70.0)
  end
  begin
     id 10 
     name rtoes
     direction -1.53537e-011 -4.22026e-011 1   
     length 1.11   
     axis -90 -7.62852e-016 -20   XYZ
    dof rx
    limits (-90.0 20.0)
  end
  begin
     id 11 
     name lowerback
     direction -0.0101212 0.99662 -0.0815298   
     length 2.08277   
     axis 0 0 0   XYZ
    dof rx ry rz
    limits (-20.0 45.0)
           (-30.0 30.0)
           (-30.0 30.0)
  end
  begin
     id 12 
     name upperback
     direction 0.024314 0.999591 -0.0150645   
     length 2.08524   
     axis 0 0 0   XYZ
    dof rx ry rz
    limits (-20.0 45.0)
           (-30.0 30.0)
           (-30.0 30.0)
  end
  begin
     id 13 
     name thorax
     direction 0.0285959 0.999323 0.0231357   
     length 2.09645   
     axis 0 0 0   XYZ
    dof rx ry rz
    limits (-20.0 45.0)
           (-30.0 30.0)
           (-30.0 30.0)
  end
  begin
     id 14 
     name lowerneck
     direction -0.065512 0.979301 0.191515   
     length 1.63798   
     axis 0 0 0   XYZ
    dof rx ry rz
    limits (-20.0 45.0)
           (-30.0 30.0)
           (-30.0 30.0)
  end
  begin
     id 15 
     name upperneck
     direction 0.0498479 0.98191 -0.182667   
     length 1.68731   
     axis 0 0 0   XYZ
    dof rx ry rz
    limits (-20.0 45.0)
           (-30.0 30.0)
           (-30.0 30.0)
  end
  begin
     id 16
     name head
     direction 0.0230358 0.996257 -0.0833175  
     length 1.69785  
     axis 0 0 0   XYZ
    dof rx ry rz
    limits (-20.0 45.0)
           (-30.0 30.0)
           (-30.0 30.0)
  end
  begin
     id 17 
     name lclavicle
     direction 0.967963 0.201165 -0.150269  
     length 3.63976  
     axis 0 0 0   XYZ
    dof ry rz
    limits (-20.0 10.0)
           (0.0 20.0)
  end
  begin
     id 18 
     name lhumerus
     direction 1 -4.48954e-011 -2.92837e-028   
     length 5.32462   
     axis 180 -30 -90   XYZ
    dof rx ry rz
    limits (-60.0 90.0)
           (-90.0 90.0)
           (-90.0 90.0)
  end
  begin
     id 19
     name lradius
     direction 1 -4.48958e-011 -6.39511e-027   
     length 3.48402   
     axis 180 -30 -90   XYZ
    dof rx
    limits (-10.0 170.0)
  end
  begin
     id 20
     name lwrist
     direction 1 -4.48975e-011 -1.1413e-026   
     length 1.74201   
     axis 6.88575e-015 90 90   XYZ
    dof ry
    limits (-180.0 0.0)
 end
  begin
     id 21 
     name lhand
     direction 1 -4.48899e-011 -2.28192e-026   
     length 0.572476   
     axis 1.45643e-014 90 90   XYZ
    dof rx rz
    limits (-90.0 90.0)
           (-45.0 45.0)
  end
  begin
     id 22 
     name lfingers
     direction 1 -4.49155e-011 -4.5684e-026   
     length 0.461545   
     axis 2.91283e-014 90 90   XYZ
    dof rx
    limits (0.0 90.0)
  end
  begin
     id 23
     name lthumb
     direction 0.707107 -6.34943e-011 0.707107   
     length 0.662688   
     axis -90 45 -2.25915e-014   XYZ
    dof rx rz
    limits (-45.0 45.0)
           (-45.0 45.0)
  end
  begin
     id 24 
     name rclavicle
     direction -0.964103 0.264019 -0.0282629   
     length 3.54491  
     axis 0 0 0   XYZ 
    dof ry rz
    limits (-10.0 20.0)
           (-20.0 0.0)
  end
  begin
     id 25 
     name rhumerus
     direction -1 -4.48964e-011 -2.45032e-027  
     length 5.33589   
     axis 180 30 90   XYZ
    dof rx ry rz
    limits (-90.0 60.0)
           (-90.0 90.0)
           (-90.0 90.0)
  end
  begin
     id 26 
     name rradius
     direction -1 -4.48987e-011 -1.55093e-027   
     length 3.64134   
     axis 180 30 90   XYZ
    dof rx
    limits (-10.0 170.0)
  end
  begin
     id 27 
     name rwrist
     direction -1 -4.4897e-011 -1.14128e-026   
     length 1.82067   
     axis 6.88575e-015 -90 -90   XYZ
    dof ry
    limits (-180.0 0.0)
  end
  begin
     id 28
     name rhand
     direction -1 -4.49021e-011 -2.28301e-026   
     length 0.734811   
     axis 1.45643e-014 -90 -90   XYZ
    dof rx rz
    limits (-90.0 90.0)
           (-45.0 45.0)
  end
  begin
     id 29
     name rfingers
     direction -1 -4.48862e-011 -4.56319e-026   
     length 0.592424   
     axis 2.91283e-014 -90 -90   XYZ
    dof rx
    limits (0.0 90.0)
  end
  begin
     id 30
     name rthumb
     direction -0.707107 -6.34978e-011 0.707107   
     length 0.850605   
     axis -90 -45 2.25915e-014   XYZ
    dof rx rz
    limits (-45.0 45.0)
           (-45.0 45.0)
  end
:hierarchy
  begin
    root lhipjoint rhipjoint lowerback
    lhipjoint lfemur
    lfemur ltibia
    ltibia lfoot
    lfoot ltoes
    rhipjoint rfemur
    rfemur rtibia
    rtibia rfoot
    rfoot rtoes
    lowerback upperback
    upperback thorax
    thorax lowerneck lclavicle rclavicle
    lowerneck upperneck
    upperneck head
    lclavicle lhumerus
    lhumerus lradius
    lradius lwrist
    lwrist lhand lthumb
    lhand lfingers
    rclavicle rhumerus
    rhumerus rradius
    rradius rwrist
    rwrist rhand rthumb
    rhand rfingers
  end

#!OML:ASF F:\VICON\USERDATA\INSTALL\rory3\rory3.ASF
:FULLY-SPECIFIED
:DEGREES
42
root -0.93411 17.7513 13.1042 -172.21 -2.64702 178.088
lowerback -2.47054 -2.00389 -5.69023
upperback -1.44933 -2.60354 2.12345
thorax 0.239828 -1.29286 5.31683
lowerneck -20.1614 0.28535 -8.645
upperneck 33.0859 5.97877 0.301488
head 14.6459 2.29328 2.90347
rclavicle -1.56046e-014 -7.95139e-016
rhumerus -32.7765 -9.38752 -77.6943
rradius 32.4006
rwrist 19.3008
rhand -20.4683 1.62737
rfingers 7.12502
rthumb 5.88766 -28.2708
lclavicle -1.56046e-014 -7.95139e-016
lhumerus -0.0409673 -29.5989 83.8364
lradius 128.069
lwrist 45.4206
lhand -17.0276 24.1302
lfingers 7.12502
lthumb 9.20868 53.9092
rfemur -16.516 3.07031 21.1016
rtibia 33.0484
rfoot -21.9831 -9.07608
rtoes 14.1941
lfemur -9.7829 -1.92447 -24.3667
ltibia 20.1662
lfoot -13.6245 3.78258
ltoes -14.5756
43
root -0.937067 17.7537 13.1073 -172.155 -2.4819 178.29
lowerback -2.47163 -2.00795 -5.46176
upperback -1.47345 -2.61742 2.20923
thorax 0.211684 -1.30049 5.27681
lowerneck -20.4001 0.260248 -8.60298
upperneck 33.2573 6.03282 0.162898
head 14.7856 2.29117 2.8636
rclavicle -3.05134e-014 -1.70955e-014
rhumerus -32.6332 -9.28389 -77.7181
rradius 32.3262
rwrist 19.1719
rhand -20.3984 1.77756
rfingers 7.12502
rthumb 5.95522 -28.1187
lclavicle -3.05134e-014 -1.70955e-014
lhumerus -1.31669 -28.9577 84.217
lradius 127.416
lwrist 44.7145
lhand -16.791 23.7135
lfingers 7.12502
lthumb 9.43698 53.4822
rfemur -16.6022 3.13363 21.2927
rtibia 33.0092
rfoot -21.934 -8.97534
rtoes 14.3707
lfemur -9.86412 -1.81064 -24.1646
ltibia 20.162
lfoot -13.5798 3.78086
ltoes -14.6406
44
root -0.93956 17.7559 13.1096 -172.16 -2.32657 178.383
lowerback -2.42236 -2.04813 -5.35576
upperback -1.51267 -2.67961 2.29618
thorax 0.151202 -1.33049 5.30792
lowerneck -20.49 0.256074 -8.62811
upperneck 33.4372 6.15559 0.0106421
head 14.8933 2.31749 2.83919
rclavicle -5.00937e-014 1.19271e-014
rhumerus -32.5488 -9.11139 -77.6983
rradius 32.2657
rwrist 19.1264
rhand -20.3725 1.99204
rfingers 7.12502
rthumb 5.98021 -27.9036
lclavicle -5.00937e-014 1.19271e-014
lhumerus -2.75492 -28.1575 84.7013
lradius 126.682
lwrist 43.883
lhand -16.2602 23.4916
lfingers 7.12502
lthumb 9.94911 53.2365
rfemur -16.6076 3.14383 21.3597
rtibia 32.9581
rfoot -21.8497 -8.80999
rtoes 14.559
lfemur -9.88805 -1.72698 -24.0674
ltibia 20.2033
lfoot -13.648 3.73684
ltoes -13.8772
45
root -0.940038 17.7594 13.1105 -172.211 -2.23845 178.304
lowerback -2.29405 -2.10216 -5.43317
upperback -1.59362 -2.75976 2.31377
thorax 0.0104097 -1.36464 5.37424
lowerneck -20.4307 0.235868 -8.61599
upperneck 33.6124 6.21236 -0.0892914
head 14.9669 2.33483 2.81479
rclavicle -8.4235e-015 -1.19271e-014
rhumerus -32.6334 -9.09359 -77.6659
rradius 32.2666
rwrist 19.2199
rhand -20.3576 1.8045
rfingers 7.12502
rthumb 5.9946 -28.0907
lclavicle -8.4235e-015 -1.19271e-014
lhumerus -4.25141 -27.3487 85.1256
lradius 125.829
lwrist 43.0867
lhand -15.6409 23.1726
lfingers 7.12502
lthumb 10.5466 52.888
rfemur -16.5413 3.16256 21.2461
rtibia 32.9285
rfoot -21.8234 -8.68948
rtoes 14.8106
lfemur -9.85961 -1.61068 -24.15
ltibia 20.2715
lfoot -13.756 3.62916
ltoes -13.3242
46
root -0.940841 17.7565 13.1146 -172.2 -2.11674 178.277
lowerback -2.22956 -2.13288 -5.44883
upperback -1.67793 -2.80789 2.33241
thorax -0.104958 -1.38414 5.40562
lowerneck -20.4276 0.193777 -8.60739
upperneck 33.8829 6.23837 -0.121692
head 15.096 2.34533 2.8194
rclavicle -5.54112e-015 1.15295e-014
rhumerus -32.6858 -9.06295 -77.6358
rradius 32.232
rwrist 19.2637
rhand -20.2497 1.57268
rfingers 7.12502
rthumb 6.09874 -28.3195
lclavicle -5.54112e-015 1.15295e-014
lhumerus -5.69616 -26.549 85.4897
lradius 124.813
lwrist 42.0994
lhand -15.0295 22.7061
lfingers 7.12502
lthumb 11.1363 52.3906
rfemur -16.5725 3.22972 21.2007
rtibia 32.9251
rfoot -22.2075 -8.29636
rtoes 13.6748
lfemur -9.88841 -1.44934 -24.1879
ltibia 20.313
lfoot -13.8073 3.59216
ltoes -13.6837
47
root -0.943294 17.748 13.1202 -172.106 -1.83887 178.211
lowerback -2.29476 -2.08967 -5.48443
upperback -1.70874 -2.7481 2.31267
thorax -0.107764 -1.3537 5.40545
lowerneck -20.6082 0.152378 -8.52867
upperneck 34.2105 6.2564 -0.149142
head 15.2968 2.35208 2.81967
rclavicle 1.47598e-014 -7.55382e-015
rhumerus -32.6907 -8.96695 -77.644
rradius 32.2542
rwrist 19.0919
rhand -20.1913 1.62805
rfingers 7.12502
rthumb 6.15514 -28.2625
lclavicle 1.47598e-014 -7.55382e-015
lhumerus -6.82349 -25.7201 85.6902
lradius 123.594
lwrist 41.106
lhand -14.3089 22.4587
lfingers 7.12502
lthumb 11.8313 52.1044
rfemur -16.741 3.21221 21.0917
rtibia 32.9385
rfoot -23.2466 -7.05608
rtoes 10.2438
lfemur -10.0059 -1.22676 -24.3031
ltibia 20.3556
lfoot -13.7849 3.67305
ltoes -14.3925
48
root -0.945512 17.7445 13.1235 -172.03 -1.55742 178.126
lowerback -2.40695 -2.03197 -5.57358
upperback -1.66172 -2.66185 2.30465
thorax -0.00449447 -1.31393 5.44529
lowerneck -20.8805 0.0913065 -8.47306
upperneck 34.486 6.25376 -0.207228
head 15.4983 2.33696 2.80635
rclavicle 1.08338e-014 -2.62396e-014
rhumerus -32.5278 -9.22524 -77.5493
rradius 32.2118
rwrist 19.1659
rhand -20.1245 1.81973
rfingers 7.12502
rthumb 6.21965 -28.069
lclavicle 1.08338e-014 -2.62396e-014
lhumerus -7.86488 -24.911 85.836
lradius 122.251
lwrist 40.1766
lhand -13.7326 22.0937
lfingers 7.12502
lthumb 12.3869 51.7067
rfemur -16.8658 3.17462 20.9531
rtibia 32.9264
rfoot -23.2756 -6.78274
rtoes 9.73723
lfemur -10.1302 -1.08245 -24.4366
ltibia 20.4637
lfoot -13.8551 3.80321
ltoes -14.3855
